<svg id="Warstwa_1" data-name="Warstwa 1" fill="black" xmlns="http://www.w3.org/2000/svg" viewBox="0 0 197.48 269.92">
  <path class="cls-1" d="m164.02,269.92c-5.45-20.81-7.6-42.5-6.27-63.98,1.29-21.35,6.22-42.6,7.02-63.82.53-13.97-1.02-28.05-6.51-40.95-4.06-9.62-9.89-18.53-16.23-26.87-1.09-1.42-3.84-5.05-4.88-6.44-3.2-3.91-5.34-8.83-5.39-13.96-.21-8.36,4.68-16.6,12.24-20.25,3.31-1.61,6.93-2.82,10.15-4.22,12.09-5.01,26.79-10.7,38.1-14.49-2.07.98-2,4.04.08,4.94.43.2.94.26,1.19.23,0,0-42.94.93-42.94.93s-2.1.05-2.1.05l-1.01-1.86c-3.28-5.93-10.12-9.12-16.65-10.81-18.2-4.97-36.82,2.54-47.04,18.27-29.15,41.09-32.17,94.62-25.3,143.15,2.09,17.46,9.52,43.29-4.27,57.61-3.02,2.93-7.07,4.57-11.12,5.31-15.87,3.02-33-5.48-39.65-20.22-3.31-7.14-4.29-15.3-2.67-22.9-1.26,7.67.12,15.64,3.66,22.41,6.8,13.71,23.35,21.25,38.11,17.96,3.61-.8,7.02-2.3,9.45-4.84,5.11-5.33,6.31-13.22,6.44-20.44.16-11.58-2.87-22.66-4.62-34.19-2.49-15.42-4-31.04-3.97-46.74-.04-22.53,3.12-45.41,10.71-66.76,2.3-6.38,5.3-12.96,8.33-19.06,0,0,2.96-5.17,2.96-5.17,4.1-6.91,8.44-13.9,14.34-19.44,15.24-14.84,39.7-17.6,58.07-6.96,3.68,2.26,7.11,5.42,9.32,9.5,0,0-3.12-1.81-3.12-1.81,0,0,42.82-.77,42.82-.77,4.61-.15,5.93,6.4,1.41,7.93,0,0-.63.22-.63.22l-2.52.87c-14.95,5.19-30.05,11.05-44.71,17.02-9.62,4.72-11.76,16.96-4.82,24.98,11.51,15.11,22.47,31.63,25.77,50.71,4.44,23.28-.84,47.09-4.53,69.94-5.09,28.08-5.21,56.95.78,84.92h0Z"/>
  <path class="cls-1" d="m11.51,85.35c16.47,19.16,30.63,19.81,54.27,17.29,12.75-1.21,26.37-4.5,35.05-14.2,6.07-6.63,8.46-16.61,3.18-24-1.95-2.52-5.34-5.61-8.5-3.64-6.06,4.33-1.92,11.95,3.3,15.24,2.42,1.63,5.35,2.88,8.46,4.06,6.48,2.34,13.45,5.18,19,9.67,8.27,6.95,14.9,16.38,17.51,26.97,5.52,24.86-5.12,55.99-35.29,52.82-6.36-.37-15.41-1.61-17.36-8.84,2.68,6.73,11.16,7.02,17.4,6.91,6.57-.07,13.23-1.06,18.48-5.14,13.01-9.67,14.87-29.6,11.08-44.29-1.62-6.18-5-11.68-9.11-16.57-4.03-4.97-9.07-8.77-14.9-11.47-6.2-2.98-13.05-4.35-19.13-8.36-9.62-6.08-13.84-19.37-3.07-26.82,10.67-6.24,21.28,6.7,21.58,16.73.95,15.74-12.62,27.92-26.61,32.1-6.83,2.19-13.84,3.07-20.73,3.4-6.94.25-13.77.55-20.7-.17-14.38-1.27-26.2-9.9-33.92-21.67h0Z"/>
</svg>